Coordinates
version=1
nRows=21
nColumns=33
inDegrees=yes

Units are S.I. units (second, meters, Newtons, ...)
Angles are in degrees.

endheader
time	ground_thorax_rot_x	ground_thorax_rot_y	ground_thorax_rot_z	ground_thorax_tx	ground_thorax_ty	ground_thorax_tz	clav_prot_r	clav_elev_r	scapula_abduction_r	scapula_elevation_r	scapula_upward_rot_r	scapula_winging_r	shoulder_elv_r	plane_of_elev_r	axial_rot_r	elbow_flexion_r	pro_sup_r	wrist_flex_r	wrist_dev_r	clav_prot_l	clav_elev_l	scapula_abduction_l	scapula_elevation_l	scapula_upward_rot_l	scapula_winging_l	shoulder_elv_l	plane_of_elev_l	axial_rot_l	elbow_flexion_l	pro_sup_l	wrist_flex_l	wrist_dev_l
      7.89000000	     40.92007509	      4.53814460	     11.27919217	   -190.30967751	    842.94668000	     -8.30584799	      3.00262970	     43.98285759	     45.00000000	     44.51384501	      8.25059803	   2405.54492833	  -2098.08130544	     16.42285275	   -179.99999979	      6.21903557	    301.15630929	     19.95495926	      7.93163878	     11.57592844	    -45.00000000	    -34.44244374	     45.00000000	    -45.00000000	   -983.70462648	  -2258.09788286	    146.21428005	    133.86207639	   -348.38671320	     42.71887029	      6.64517397	    -21.56104290
      7.90000000	     40.94071284	      4.38903947	     11.19693206	   -189.82284243	    843.70863498	     -8.31091082	      3.00841377	     43.72753517	     45.00000000	     44.57803819	      8.66088543	   2405.50308402	  -2098.08086556	     16.46523208	   -179.99999979	      6.23107651	    301.72136729	     20.05292801	      7.85814801	     11.57107530	    -45.00000000	    -34.59062147	     45.00000000	    -45.00000000	   -983.65122427	  -2258.11809056	    146.12460135	    134.04425274	   -348.29708176	     43.12517182	      6.53894341	    -21.52716042
      7.91000000	     41.04905493	      4.43891915	     11.09626325	   -189.34049758	    844.54008852	     -8.31712095	      2.84570303	     43.89177574	     45.00000000	     44.84279021	      9.03004479	   2405.40819851	  -2098.05084430	     16.38355287	   -179.99999979	      6.35513137	    302.30193835	     20.11337710	      7.85428711	     11.63957697	    -45.00000000	    -34.66140167	     45.00000000	    -45.00000000	   -983.74719265	  -2258.03953943	    146.01155461	    134.15676336	   -348.15666671	     43.53078735	      6.48244185	    -21.57151033
      7.92000000	     40.98340070	      4.31958776	     11.02757124	   -188.86559415	    845.44714827	     -8.32377677	      2.79684850	     43.72102687	     45.00000000	     44.72707504	      9.43404962	   2405.27655471	  -2097.91581282	     16.53579754	   -179.99999979	      6.29794644	    302.88373429	     20.19016033	      7.78924545	     11.64792184	    -45.00000000	    -34.80306070	     45.00000000	    -45.00000000	   -983.70519769	  -2257.90049213	    145.93826139	    134.31743621	   -348.08875428	     43.93120016	      6.37399591	    -21.54232754
      7.93000000	     40.97877362	      4.35923351	     11.06693974	   -188.39209803	    846.44932629	     -8.33078685	      2.57445732	     43.87214070	     45.00000000	     44.84787223	      9.52765886	   2405.41873940	  -2097.86108045	     16.40877964	   -179.99999979	      6.28735486	    303.46219473	     20.25650272	      7.73166594	     11.76697210	    -45.00000000	    -34.92204363	     45.00000000	    -45.00000000	   -983.70932365	  -2257.84795662	    145.89254792	    134.49159744	   -348.07637556	     44.36311825	      6.33772577	    -21.57068189
      7.94000000	     41.03393971	      4.21146671	     10.89217907	   -187.91638117	    847.55692012	     -8.33831632	      2.65392173	     43.64750847	     45.00000000	     45.00000000	      9.85751239	   2405.38600728	  -2097.90119761	     16.49793356	   -179.99999979	      6.41275718	    303.95538581	     20.41175071	      7.70032390	     11.77201280	    -45.00000000	    -35.09279654	     45.00000000	    -45.00000000	   -983.62480677	  -2257.71509175	    145.68124593	    134.73353141	   -347.83320710	     44.73048703	      6.16686676	    -21.54629538
      7.95000000	     41.05433776	      4.28718617	     10.88726820	   -187.42346034	    848.79889317	     -8.34685398	      2.36209671	     43.59654426	     45.00000000	     45.00000000	     10.14568521	   2405.42778409	  -2097.60397673	     16.50097418	   -179.99999979	      6.32571869	    304.47191829	     20.43046288	      7.68143598	     11.89196461	    -45.00000000	    -35.25431819	     45.00000000	    -45.00000000	   -983.67488384	  -2257.61533610	    145.60423154	    134.97621886	   -347.77581862	     45.15610110	      6.13844827	    -21.61180801
      7.96000000	     40.98662303	      4.20008318	     10.77089779	   -186.91624617	    850.15090430	     -8.35684662	      2.37887539	     44.23195306	     45.00000000	     45.00000000	     11.19893226	   2404.84234246	  -2097.45964290	     16.84304916	   -179.99999979	      6.55819295	    305.25852849	     20.41765762	      7.78901624	     11.79625044	    -45.00000000	    -35.22564548	     45.00000000	    -45.00000000	   -983.91110999	  -2257.29382026	    145.66225427	    135.17589111	   -347.70067048	     45.71991484	      6.08148453	    -21.66955915
      7.97000000	     40.92802731	      4.12319851	     10.72773308	   -186.36879058	    851.65794275	     -8.36602499	      2.28182656	     44.11183855	     45.00000000	     45.00000000	     11.21863395	   2404.96655794	  -2097.45335683	     16.90024292	   -179.99999979	      6.52103496	    305.92569207	     20.64006056	      7.63619386	     11.85206777	    -45.00000000	    -35.44293115	     45.00000000	    -45.00000000	   -983.80454304	  -2257.13841068	    145.52440468	    135.67044700	   -347.65074611	     46.19796161	      5.99883408	    -21.69126584
      7.98000000	     40.90017820	      4.06388109	     10.64421603	   -185.76770763	    853.31931046	     -8.37358406	      2.27953796	     44.15075177	     45.00000000	     45.00000000	     11.50082720	   2404.95761800	  -2097.35926714	     17.07461526	   -179.99999979	      6.53846255	    306.56412070	     20.73736220	      7.60653658	     11.90251732	    -45.00000000	    -35.58697777	     45.00000000	    -45.00000000	   -983.79366847	  -2256.89515994	    145.35098875	    135.93090417	   -347.49273945	     46.69341600	      5.89867761	    -21.72096846
      7.99000000	     40.87748725	      3.96605635	     10.50864508	   -185.10417019	    855.15167694	     -8.35867684	      2.23560996	     44.16194136	     45.00000000	     45.00000000	     11.84772691	   2404.99197430	  -2097.23251643	     17.23071163	   -179.99999979	      6.57429118	    307.16083609	     20.85481657	      7.57689418	     11.93873078	    -45.00000000	    -35.79288814	     45.00000000	    -45.00000000	   -983.77012055	  -2256.65176037	    145.15537869	    136.31994336	   -347.34063012	     47.15793639	      5.80222601	    -21.75267570
      8.00000000	     40.80231305	      3.94675457	     10.51686822	   -184.35106959	    857.15428914	     -8.32846947	      2.19962483	     44.13542595	     45.00000000	     45.00000000	     11.79137954	   2405.15948106	  -2097.19485646	     17.36045445	   -179.99999979	      6.52402288	    307.52994350	     21.12398054	      7.41811739	     12.01120575	    -45.00000000	    -35.93147431	     45.00000000	    -45.00000000	   -983.65763897	  -2256.37307792	    144.95259933	    136.85938131	   -347.28123904	     47.55057763	      5.71927404	    -21.76695964
      8.01000000	     40.78723763	      3.83383334	     10.39885270	   -183.49041784	    859.31590640	     -8.29093716	      2.23621319	     44.13402153	     45.00000000	     45.00000000	     12.06502220	   2405.24080894	  -2097.10444501	     17.59098633	   -179.99999979	      6.51946045	    307.71079353	     21.27754686	      7.39328041	     12.06454672	    -45.00000000	    -36.16648415	     45.00000000	    -45.00000000	   -983.59258682	  -2256.11916077	    144.74395398	    137.21675261	   -347.09998586	     47.91602162	      5.62156464	    -21.79644663
      8.02000000	     40.73157598	      3.72317958	     10.20388170	   -182.49175792	    861.61410140	     -8.27475380	      2.19342977	     44.04456419	     45.00000000	     45.00000000	     12.53914133	   2405.25816581	  -2096.97769169	     17.76332408	   -179.99999979	      6.52798532	    307.72879578	     21.45295801	      7.37793741	     12.14905085	    -45.00000000	    -36.46558885	     45.00000000	    -45.00000000	   -983.57983488	  -2255.82518890	    144.48605923	    137.78347480	   -347.06688444	     48.26486601	      5.55375433	    -21.80879135
      8.03000000	     40.65128995	      3.31738551	      9.47121675	   -181.35682370	    864.00951592	     -8.28035024	      1.61809734	     43.38376062	     45.00000000	     45.00000000	     15.82876949	   2404.95654457	  -2095.87766355	     17.41133877	   -179.99999979	      6.80236462	    308.12014652	     21.12652910	      7.85599131	     12.28588118	    -45.00000000	    -37.04958911	     45.00000000	    -45.00000000	   -983.68548324	  -2255.44963975	    144.01105525	    138.78410824	   -346.90808923	     48.69583886	      5.24178396	    -21.56896261
      8.04000000	     40.58256908	      3.24598579	      9.28062454	   -180.06613346	    866.47628136	     -8.32294806	      1.33349253	     43.25609894	     45.00000000	     45.00000000	     16.72009815	   2404.96535184	  -2095.57284741	     17.49987835	   -179.99999979	      6.80790787	    308.56808253	     21.40230288	      7.73806681	     12.40691877	    -45.00000000	    -37.34944251	     45.00000000	    -45.00000000	   -983.62494202	  -2255.13742842	    143.71642689	    139.67086509	   -346.82403551	     49.10671865	      5.15414220	    -21.59811480
      8.05000000	     40.52767482	      3.13907567	      9.01222867	   -178.62998707	    868.98225957	     -8.39054605	      1.01447830	     43.10184584	     45.00000000	     45.00000000	     17.82830507	   2404.90579567	  -2095.21391494	     17.62960034	   -179.99999979	      6.83920545	    308.93203558	     21.54679715	      7.75633317	     12.59432494	    -45.00000000	    -37.75943332	     45.00000000	    -45.00000000	   -983.58671813	  -2254.80124662	    143.39147871	    140.58833170	   -346.71516965	     49.47661476	      5.05776448	    -21.62640949
      8.06000000	     40.46914756	      2.99789761	      8.72383142	   -177.05381560	    871.50141501	     -8.47080517	      0.54679789	     42.92938119	     45.00000000	     45.00000000	     19.06812814	   2404.81531712	  -2094.88389754	     17.75295110	   -179.99999979	      6.84822425	    309.55618204	     21.75968795	      7.71193347	     12.77051364	    -45.00000000	    -38.09417475	     45.00000000	    -45.00000000	   -983.56458549	  -2254.43190018	    143.03962962	    141.71682316	   -346.62548875	     49.84989238	      4.97971202	    -21.67696610
      8.07000000	     40.42955861	      3.07264820	      8.64722384	   -175.35733363	    874.02195892	     -8.53519448	      0.97141825	     42.96484059	     45.00000000	     45.00000000	     18.96416805	   2404.86209538	  -2095.00709038	     18.11710888	   -179.99999979	      6.76063591	    309.77463772	     21.80560285	      7.76815259	     12.77653847	    -45.00000000	    -38.59390796	     45.00000000	    -45.00000000	   -983.53048352	  -2254.10917466	    142.88150810	    142.14791382	   -346.50170872	     50.15173404	      4.89838715	    -21.71155143
      8.08000000	     40.41707767	      3.16700068	      8.85447719	   -173.53402980	    876.54093316	     -8.58400869	      0.84546297	     43.21772524	     45.00000000	     45.00000000	     17.48713889	   2405.30267120	  -2095.56044323	     18.59898005	   -179.99999979	      6.50156947	    309.60674376	     22.53438409	      7.30240590	     12.84321174	    -45.00000000	    -38.51662365	     45.00000000	    -45.00000000	   -983.38161418	  -2253.73166194	    142.63279583	    142.52818463	   -346.45179192	     50.40837593	      4.95072063	    -21.90288735
      8.09000000	     40.43046439	      2.94638223	      8.28526022	   -171.60586375	    879.02449986	     -8.62223784	      0.82016531	     42.98633588	     45.00000000	     45.00000000	     19.01942676	   2405.21989419	  -2095.12097585	     18.73053589	   -179.99999979	      6.53078315	    309.41375584	     22.49043988	      7.61354376	     12.82624458	    -45.00000000	    -39.25980525	     45.00000000	    -44.31595002	   -983.41975056	  -2253.54924709	    142.48968723	    142.97243156	   -346.39381372	     50.66737665	      4.83636805	    -21.86776642
